<svg xmlns="http://www.w3.org/2000/svg" width="515" height="430" viewBox="0 0 515 430"><path fill="none" stroke="#000" d="M90 325h400M90 295h400M90 265h400M90 235h400M90 205h400M90 175h400M90 145h400M90 115h400M90 85h400M90 55h400M90 25h400" opacity=".3"/><path fill="none" stroke="#000" d="M150.465 331v-6" stroke-width="2"/><path fill="#ffbb71" d="M117.907 325V145h65.116v180"/><path fill="#ffbb71" stroke="#000" d="M243.488 331v-6" stroke-width="2"/><path fill="#ffbb71" d="M210.93 325v-90h65.117v90"/><path fill="#ffbb71" stroke="#000" d="M336.512 331v-6" stroke-width="2"/><path fill="#ffbb71" d="M303.953 325V115h65.117v210"/><path fill="#ffbb71" stroke="#000" d="M429.535 331v-6" stroke-width="2"/><path fill="#ffbb71" d="M396.977 325V175h65.116v150"/><path fill="#ffbb71" stroke="#000" d="M90 325h400M90 325V25" stroke-width="2"/></svg>
